#!OML:ASF H:\Terrain\Patient Classification 1\Animal1\Tuesday\Animal1.ASF
:FULLY-SPECIFIED
:DEGREES
1494
root 9.85499 16.9571 -25.9656 -165.9 -114.424 -184.881
lowerback -8.4532 0.92766 4.45298
upperback -2.03509 0.745527 1.55138
thorax 2.66617 0.370036 -0.818592
lowerneck -1.99888 1.37472 -6.28449
upperneck 11.3321 1.71379 3.86972
head 4.00191 0.704753 2.49355
rclavicle 4.22914e-014 1.31198e-014
rhumerus -35.5245 -10.7846 -80.1633
rradius 9.80319
rwrist -15.0176
rhand -2.46961 12.4829
rfingers 7.12502
rthumb 23.2229 -16.1369
lclavicle 4.22914e-014 1.31198e-014
lhumerus -39.5359 29.0501 70.6409
lradius 8.88668
lwrist -41.8709
lhand 47.2184 34.1762
lfingers 7.12502
lthumb 68.0341 35.3207
rfemur -11.2914 8.38043 26.7576
rtibia 26.5759
rfoot 30.8729 -37.267
rtoes -5.99973
lfemur -12.3951 -8.15073 -24.3306
ltibia 9.70837
lfoot -2.60511 32.7399
ltoes 10.7317
1495
root 9.77117 17.0115 -25.9384 -166.156 -115.082 -184.731
lowerback -8.56276 1.87853 4.34041
upperback -1.41416 2.04459 0.616862
thorax 3.46188 1.04828 -1.56424
lowerneck -4.42645 0.446334 -4.64308
upperneck 12.508 0.429318 4.11464
head 4.44274 0.192035 2.04852
rclavicle 5.68897e-014 2.14687e-014
rhumerus -34.9912 -13.5121 -80.6925
rradius 9.95397
rwrist -15.0536
rhand -5.57358 13.086
rfingers 7.12502
rthumb 20.2422 -15.8792
lclavicle 5.68897e-014 2.14687e-014
lhumerus -37.0317 27.2553 71.2996
lradius 8.92221
lwrist -41.9063
lhand 48.4503 34.3769
lfingers 7.12502
lthumb 68.906 33.3148
rfemur -10.9388 7.80084 26.6406
rtibia 26.5721
rfoot 32.6359 -34.8902
rtoes -9.73425
lfemur -12.6535 -8.02661 -24.5578
ltibia 9.69086
lfoot -2.22752 32.4654
ltoes 11.368
1496
root 9.6865 17.0554 -25.9037 -166.286 -115.8 -184.978
lowerback -8.7382 1.46152 3.99616
upperback -1.74894 1.49758 1.05344
thorax 3.15817 0.758169 -0.985141
lowerneck -2.18218 1.01011 -5.94408
upperneck 11.6716 1.18879 4.05457
head 4.19095 0.46525 2.48682
rclavicle -1.21383e-014 7.15625e-015
rhumerus -35.8382 -11.1722 -80.7133
rradius 9.95625
rwrist -15.3834
rhand -5.80511 13.0925
rfingers 7.12502
rthumb 20.0197 -15.8962
lclavicle -1.21383e-014 7.15625e-015
lhumerus -39.3385 28.9933 69.8247
lradius 9.27603
lwrist -41.9815
lhand 49.409 35.2429
lfingers 7.12502
lthumb 69.5601 32.3321
rfemur -10.29 7.16249 26.6859
rtibia 26.5406
rfoot 35.2254 -31.2405
rtoes -13.7083
lfemur -12.6627 -7.91809 -24.684
ltibia 9.80572
lfoot 1.04877 31.8244
ltoes 4.26849
1497
root 9.61221 17.092 -25.8599 -165.636 -116.784 -186.08
lowerback -8.34285 1.28965 4.31382
upperback -2.23846 1.2625 1.28415
thorax 2.42128 0.620993 -0.965803
lowerneck -0.635795 1.24468 -6.40719
upperneck 11.6741 1.42432 3.97744
head 3.87541 0.53897 2.52482
rclavicle -2.69012e-014 -1.03368e-014
rhumerus -36.7144 -9.79392 -80.8121
rradius 9.90077
rwrist -15.8471
rhand -6.16167 12.645
rfingers 7.12502
rthumb 19.6769 -16.3791
lclavicle -2.69012e-014 -1.03368e-014
lhumerus -41.2621 29.8857 68.5421
lradius 9.63217
lwrist -42.266
lhand 49.4533 35.8591
lfingers 7.12502
lthumb 69.5897 32.86
rfemur -9.72904 6.20391 27.1181
rtibia 26.5471
rfoot 41.3454 -19.4003
rtoes -25.78
lfemur -12.5491 -7.9661 -24.3482
ltibia 9.7023
lfoot -1.74368 32.6716
ltoes 18.3101
1498
root 9.53615 17.1321 -25.8133 -164.928 -117.872 -187.039
lowerback -8.20987 1.34715 4.70296
upperback -2.49961 1.31976 1.28127
thorax 2.08788 0.638983 -1.18646
lowerneck -0.382762 1.1924 -6.56954
upperneck 12.1774 1.30862 4.14349
head 4.01395 0.467596 2.61512
rclavicle 2.21983e-014 -1.78906e-014
rhumerus -37.1801 -9.32036 -80.9465
rradius 9.87608
rwrist -16.4041
rhand -6.39544 12.3373
rfingers 7.12502
rthumb 19.4522 -16.7097
lclavicle 2.21983e-014 -1.78906e-014
lhumerus -42.1468 30.2241 67.804
lradius 9.98788
lwrist -42.9223
lhand 49.0693 35.3016
lfingers 7.12502
lthumb 69.3309 33.0595
rfemur -9.36697 5.18938 27.4483
rtibia 26.5583
rfoot 43.5572 -7.55999
rtoes -31.4089
lfemur -12.5856 -8.12954 -23.9776
ltibia 9.67799
lfoot -3.88006 32.6849
ltoes 29.6316
1499
root 9.45319 17.1734 -25.7682 -164.593 -118.719 -187.465
lowerback -8.54943 1.39918 4.64192
upperback -2.34009 1.36957 1.27676
thorax 2.44292 0.673502 -1.14265
lowerneck -0.985684 1.1046 -7.02619
upperneck 12.926 1.16479 4.76182
head 3.93973 0.421293 2.65387
rclavicle 2.06915e-014 -7.95139e-015
rhumerus -36.9983 -8.73334 -81.1101
rradius 10.0046
rwrist -17.3984
rhand -5.60688 12.3341
rfingers 7.12502
rthumb 20.2102 -16.6346
lclavicle 2.06915e-014 -7.95139e-015
lhumerus -42.0202 30.9961 67.4679
lradius 10.0406
lwrist -44.0892
lhand 48.903 34.6363
lfingers 7.12502
lthumb 69.2177 32.7162
rfemur -9.10224 4.54594 27.4408
rtibia 26.5692
rfoot 42.1998 -10.4017
rtoes -28.5884
lfemur -12.9444 -8.13049 -23.8866
ltibia 10.1751
lfoot -3.62861 32.0866
ltoes 33.9275
1500
root 9.37254 17.2105 -25.7262 -164.218 -119.489 -187.909
lowerback -8.82899 1.48796 4.56261
upperback -2.10446 1.47632 1.19476
thorax 2.84845 0.738925 -1.16169
lowerneck -2.04213 0.903535 -7.2248
upperneck 13.5017 0.922587 5.1746
head 4.30024 0.320994 2.82072
rclavicle -4.72781e-014 -1.98785e-016
rhumerus -36.5206 -7.07392 -82.3234
rradius 10.2791
rwrist -20.0458
rhand -5.67533 11.9539
rfingers 7.12502
rthumb 20.1444 -17.0217
lclavicle -4.72781e-014 -1.98785e-016
lhumerus -41.7968 32.1647 66.7799
lradius 10.0638
lwrist -46.1585
lhand 49.5276 34.4344
lfingers 7.12502
lthumb 69.6394 31.2865
rfemur -8.94256 4.1891 27.4671
rtibia 26.7043
rfoot 38.6414 -18.8387
rtoes -17.604
lfemur -13.5001 -8.06713 -23.762
ltibia 10.962
lfoot -1.42894 31.401
ltoes 35.4049
1501
root 9.28902 17.2278 -25.6835 -163.863 -120.196 -188.38
lowerback -9.09128 1.60793 4.50802
upperback -1.99526 1.62763 1.0842
thorax 3.1173 0.821283 -1.21994
lowerneck -2.52485 0.661055 -7.162
upperneck 13.8858 0.584501 5.41719
head 4.51777 0.173316 2.87997
rclavicle -3.07883e-014 1.38652e-014
rhumerus -36.3844 -7.26265 -82.3923
rradius 10.4235
rwrist -20.4285
rhand -5.65049 11.4918
rfingers 7.12502
rthumb 20.1683 -17.4813
lclavicle -3.07883e-014 1.38652e-014
lhumerus -41.5913 32.5157 66.5415
lradius 10.1025
lwrist -47.1617
lhand 49.8569 34.2796
lfingers 7.12502
lthumb 69.8577 30.4634
rfemur -8.79894 3.79923 27.5827
rtibia 27.0678
rfoot 39.9845 -10.9053
rtoes -23.701
lfemur -13.9063 -7.20696 -23.8364
ltibia 11.8015
lfoot 1.83753 30.0833
ltoes 35.4556
1502
root 9.19797 17.218 -25.6373 -163.591 -120.757 -188.843
lowerback -9.36035 1.61198 4.3274
upperback -1.98896 1.63139 1.147
thorax 3.26665 0.823731 -1.04653
lowerneck -2.4392 0.644414 -7.55362
upperneck 14.1148 0.525936 5.78855
head 4.57257 0.14027 3.06083
rclavicle 1.17401e-013 -6.99474e-015
rhumerus -36.5092 -8.45511 -81.3133
rradius 10.1675
rwrist -18.7776
rhand -5.61022 11.5344
rfingers 7.12502
rthumb 20.207 -17.4346
lclavicle 1.17401e-013 -6.99474e-015
lhumerus -41.7636 32.8759 66.3576
lradius 10.0191
lwrist -47.3664
lhand 49.5188 34.6024
lfingers 7.12502
lthumb 69.6335 31.4721
rfemur -8.56041 3.3026 27.6784
rtibia 27.6116
rfoot 39.7573 -4.83676
rtoes -26.7519
lfemur -14.2134 -6.33358 -23.9669
ltibia 13.0104
lfoot 1.69535 30.1676
ltoes 38.1901
1503
root 9.10931 17.1958 -25.5896 -163.251 -121.374 -189.274
lowerback -9.58643 1.56866 4.19537
upperback -2.0832 1.57359 1.18517
thorax 3.28649 0.791979 -0.93629
lowerneck -2.4102 0.699496 -7.92102
upperneck 14.4012 0.567276 6.13323
head 4.64775 0.155799 3.23542
rclavicle -2.89573e-014 2.28602e-015
rhumerus -36.5328 -8.30075 -81.2184
rradius 9.78241
rwrist -18.0446
rhand -5.85203 11.7072
rfingers 7.12502
rthumb 19.9746 -17.2862
lclavicle -2.89573e-014 2.28602e-015
lhumerus -42.0492 33.0598 66.1803
lradius 9.9292
lwrist -47.3316
lhand 49.1514 35.2078
lfingers 7.12502
lthumb 69.3866 32.8055
rfemur -8.42608 2.81988 27.7271
rtibia 28.2983
rfoot 38.2248 -6.62785
rtoes -24.5015
lfemur -14.7004 -5.85635 -24.0021
ltibia 14.5448
lfoot -0.865255 31.2644
ltoes 40.7831
1504
root 9.02683 17.1722 -25.5427 -162.767 -122.014 -189.755
lowerback -9.84527 1.58652 4.22659
upperback -2.17409 1.58574 1.06936
thorax 3.33983 0.797704 -1.06761
lowerneck -2.25491 0.625793 -7.80989
upperneck 14.3191 0.433813 6.26042
head 4.60485 0.101888 3.24888
rclavicle 1.56703e-013 1.64991e-014
rhumerus -36.4507 -8.4574 -81.3601
rradius 9.52098
rwrist -17.5325
rhand -6.25158 11.4463
rfingers 7.12502
rthumb 19.5905 -17.5867
lclavicle 1.56703e-013 1.64991e-014
lhumerus -42.1796 32.9966 65.8923
lradius 9.85406
lwrist -47.3885
lhand 48.2674 34.8507
lfingers 7.12502
lthumb 68.7787 34.1279
rfemur -8.48681 2.38859 27.8411
rtibia 29.1191
rfoot 36.4047 -7.16524
rtoes -23.1978
lfemur -15.2034 -5.40593 -23.9488
ltibia 15.8616
lfoot -1.93591 31.2388
ltoes 40.2144
1505
root 8.94747 17.1386 -25.4934 -162.376 -122.561 -190.127
lowerback -10.1013 1.54757 4.14888
upperback -2.23748 1.53099 1.01147
thorax 3.41232 0.76987 -1.08631
lowerneck -2.13156 0.575044 -7.77927
upperneck 14.2558 0.34163 6.36926
head 4.57033 0.0629816 3.27236
rclavicle 9.23949e-014 3.06128e-014
rhumerus -36.2264 -8.42298 -81.5823
rradius 9.28079
rwrist -17.4263
rhand -6.23901 11.2032
rfingers 7.12502
rthumb 19.6026 -17.8285
lclavicle 9.23949e-014 3.06128e-014
lhumerus -42.2564 33.1775 65.5619
lradius 9.68768
lwrist -47.7151
lhand 47.8389 34.4205
lfingers 7.12502
lthumb 68.4775 34.4765
rfemur -8.58094 1.96751 27.907
rtibia 29.8904
rfoot 34.4886 -7.02482
rtoes -22.236
lfemur -15.475 -5.27673 -23.8658
ltibia 16.9283
lfoot -4.50462 30.6704
ltoes 42.836
1506
root 8.87003 17.0914 -25.4388 -162.48 -123.022 -190.051
lowerback -10.1634 1.47 3.84376
upperback -2.31758 1.46139 0.9499
thorax 3.35399 0.731149 -0.98821
lowerneck -2.20662 0.551256 -7.86563
upperneck 14.4446 0.300966 6.46093
head 4.64265 0.0424026 3.31686
rclavicle -7.06579e-014 -4.96962e-015
rhumerus -36.0309 -8.24779 -81.6657
rradius 8.87523
rwrist -16.7296
rhand -4.19828 12.4118
rfingers 7.12502
rthumb 21.5635 -16.4077
lclavicle -7.06579e-014 -4.96962e-015
lhumerus -42.3878 33.5233 65.3419
lradius 9.51406
lwrist -48.4482
lhand 48.527 34.7265
lfingers 7.12502
lthumb 68.9592 33.5208
rfemur -8.46092 1.5302 27.6824
rtibia 30.3717
rfoot 32.6954 -7.34481
rtoes -21.9464
lfemur -15.5345 -5.46198 -24.0385
ltibia 18.0358
lfoot -7.6202 30.1228
ltoes 45.6768
1507
root 8.78872 17.0397 -25.3833 -162.704 -123.489 -190.114
lowerback -10.0262 1.38667 3.658
upperback -2.30208 1.38077 0.895372
thorax 3.2877 0.690085 -0.953858
lowerneck -2.34929 0.563272 -7.85904
upperneck 14.6076 0.321823 6.4614
head 4.71505 0.0536161 3.32
rclavicle -8.11701e-014 -1.94809e-014
rhumerus -36.0463 -8.02674 -81.7588
rradius 8.96144
rwrist -16.2273
rhand -2.54694 13.5206
rfingers 7.12502
rthumb 23.1487 -15.1086
lclavicle -8.11701e-014 -1.94809e-014
lhumerus -42.5657 33.9142 65.136
lradius 9.37534
lwrist -48.9601
lhand 48.5336 35.2893
lfingers 7.12502
lthumb 68.9637 34.0713
rfemur -7.96495 1.17308 27.5645
rtibia 30.5386
rfoot 31.1871 -8.40704
rtoes -22.1277
lfemur -15.3929 -5.14926 -24.264
ltibia 19.0396
lfoot -7.42527 29.997
ltoes 43.2567
